<svg xmlns="http://www.w3.org/2000/svg" width="900" height="268" viewBox="0 0 900 268">
  <rect width="900" height="268" fill="#ffffff" rx="6" ry="6" />
  <!-- title -->
  <text x="450" y="20" text-anchor="middle"
        font-family="-apple-system, BlinkMacSystemFont, &quot;Segoe UI&quot;, Helvetica, Arial, sans-serif" font-size="14" font-weight="600" fill="#24292e"
        >Auction Listings — Record Growth</text>
  <!-- legend -->
  <circle cx="365" cy="31" r="4" fill="#3b82f6" />
  <text x="373" y="34" font-family="-apple-system, BlinkMacSystemFont, &quot;Segoe UI&quot;, Helvetica, Arial, sans-serif" font-size="11" fill="#586069">Total Records</text>
  <circle cx="455" cy="31" r="4" fill="#22c55e" />
  <text x="463" y="34" font-family="-apple-system, BlinkMacSystemFont, &quot;Segoe UI&quot;, Helvetica, Arial, sans-serif" font-size="11" fill="#586069">Added</text>
  <!-- grid lines -->
  <line x1="58" y1="52" x2="848" y2="52"
           stroke="#e1e4e8" stroke-width="1" stroke-dasharray="4,3" />
  <line x1="58" y1="145" x2="848" y2="145"
           stroke="#e1e4e8" stroke-width="1" stroke-dasharray="4,3" />
  <line x1="58" y1="236" x2="848" y2="236"
           stroke="#e1e4e8" stroke-width="1" stroke-dasharray="4,3" />
  <!-- bars (Added, right axis) -->
  <rect x="59" y="85" width="30" height="155"
          rx="1" fill="#22c55eb3" />
  <rect x="91" y="124" width="30" height="116"
          rx="1" fill="#22c55eb3" />
  <rect x="123" y="130" width="30" height="110"
          rx="1" fill="#22c55eb3" />
  <rect x="155" y="85" width="30" height="155"
          rx="1" fill="#22c55eb3" />
  <rect x="187" y="74" width="30" height="166"
          rx="1" fill="#22c55eb3" />
  <rect x="219" y="90" width="30" height="150"
          rx="1" fill="#22c55eb3" />
  <rect x="251" y="113" width="30" height="127"
          rx="1" fill="#22c55eb3" />
  <rect x="283" y="75" width="30" height="165"
          rx="1" fill="#22c55eb3" />
  <rect x="315" y="73" width="30" height="167"
          rx="1" fill="#22c55eb3" />
  <rect x="347" y="88" width="30" height="152"
          rx="1" fill="#22c55eb3" />
  <rect x="379" y="84" width="30" height="156"
          rx="1" fill="#22c55eb3" />
  <rect x="411" y="83" width="30" height="157"
          rx="1" fill="#22c55eb3" />
  <rect x="443" y="89" width="30" height="151"
          rx="1" fill="#22c55eb3" />
  <rect x="475" y="94" width="30" height="146"
          rx="1" fill="#22c55eb3" />
  <rect x="507" y="95" width="30" height="145"
          rx="1" fill="#22c55eb3" />
  <rect x="539" y="104" width="30" height="136"
          rx="1" fill="#22c55eb3" />
  <rect x="571" y="102" width="30" height="138"
          rx="1" fill="#22c55eb3" />
  <rect x="603" y="103" width="30" height="137"
          rx="1" fill="#22c55eb3" />
  <rect x="635" y="104" width="30" height="136"
          rx="1" fill="#22c55eb3" />
  <rect x="667" y="102" width="30" height="138"
          rx="1" fill="#22c55eb3" />
  <rect x="699" y="104" width="30" height="136"
          rx="1" fill="#22c55eb3" />
  <rect x="731" y="105" width="30" height="135"
          rx="1" fill="#22c55eb3" />
  <rect x="763" y="108" width="30" height="132"
          rx="1" fill="#22c55eb3" />
  <rect x="795" y="130" width="30" height="110"
          rx="1" fill="#22c55eb3" />
  <!-- line (Total, left axis) -->
  <polyline points="74,240 106,233 138,227 170,218 202,208 234,199 266,192 298,182 330,173 362,164 394,155 426,145 458,137 490,128 522,120 554,112 586,104 618,96 650,88 682,80 714,72 746,64 778,56 810,50" fill="none" stroke="#3b82f6" stroke-width="2" stroke-linejoin="round" stroke-linecap="round" />
  <!-- left y-axis labels (Total) -->
  <text x="52" y="56" text-anchor="end"
           font-family="-apple-system, BlinkMacSystemFont, &quot;Segoe UI&quot;, Helvetica, Arial, sans-serif" font-size="10" fill="#586069"
           >2M</text>
  <text x="52" y="149" text-anchor="end"
           font-family="-apple-system, BlinkMacSystemFont, &quot;Segoe UI&quot;, Helvetica, Arial, sans-serif" font-size="10" fill="#586069"
           >1M</text>
  <text x="52" y="240" text-anchor="end"
           font-family="-apple-system, BlinkMacSystemFont, &quot;Segoe UI&quot;, Helvetica, Arial, sans-serif" font-size="10" fill="#586069"
           >406k</text>
  <!-- right y-axis labels (Added) -->
  <text x="854" y="56" text-anchor="start"
           font-family="-apple-system, BlinkMacSystemFont, &quot;Segoe UI&quot;, Helvetica, Arial, sans-serif" font-size="10" fill="#22c55e"
           >77k</text>
  <text x="854" y="149" text-anchor="start"
           font-family="-apple-system, BlinkMacSystemFont, &quot;Segoe UI&quot;, Helvetica, Arial, sans-serif" font-size="10" fill="#22c55e"
           >38k</text>
  <text x="854" y="240" text-anchor="start"
           font-family="-apple-system, BlinkMacSystemFont, &quot;Segoe UI&quot;, Helvetica, Arial, sans-serif" font-size="10" fill="#22c55e"
           >0</text>
  <!-- axes -->
  <line x1="58" y1="50" x2="58" y2="240"
        stroke="#e1e4e8" stroke-width="1" />
  <line x1="58" y1="240" x2="848" y2="240"
        stroke="#e1e4e8" stroke-width="1" />
  <line x1="848" y1="50" x2="848" y2="240"
           stroke="#e1e4e8" stroke-width="1" />
  <!-- x-axis labels -->
  <text x="74" y="256" text-anchor="middle"
           font-family="-apple-system, BlinkMacSystemFont, &quot;Segoe UI&quot;, Helvetica, Arial, sans-serif" font-size="10" fill="#586069"
           >Dec 14</text>
  <text x="298" y="256" text-anchor="middle"
           font-family="-apple-system, BlinkMacSystemFont, &quot;Segoe UI&quot;, Helvetica, Arial, sans-serif" font-size="10" fill="#586069"
           >Feb 1</text>
  <text x="522" y="256" text-anchor="middle"
           font-family="-apple-system, BlinkMacSystemFont, &quot;Segoe UI&quot;, Helvetica, Arial, sans-serif" font-size="10" fill="#586069"
           >Mar 22</text>
  <text x="746" y="256" text-anchor="middle"
           font-family="-apple-system, BlinkMacSystemFont, &quot;Segoe UI&quot;, Helvetica, Arial, sans-serif" font-size="10" fill="#586069"
           >May 10</text>
  <text x="810" y="256" text-anchor="middle"
           font-family="-apple-system, BlinkMacSystemFont, &quot;Segoe UI&quot;, Helvetica, Arial, sans-serif" font-size="10" fill="#586069"
           >May 24</text>
</svg>