<svg xmlns="http://www.w3.org/2000/svg" width="900" height="268" viewBox="0 0 900 268">
  <rect width="900" height="268" fill="#ffffff" rx="6" ry="6" />
  <!-- title -->
  <text x="450" y="20" text-anchor="middle"
        font-family="-apple-system, BlinkMacSystemFont, &quot;Segoe UI&quot;, Helvetica, Arial, sans-serif" font-size="14" font-weight="600" fill="#24292e"
        >Auction Listings — Record Growth</text>
  <!-- legend -->
  <circle cx="365" cy="31" r="4" fill="#3b82f6" />
  <text x="373" y="34" font-family="-apple-system, BlinkMacSystemFont, &quot;Segoe UI&quot;, Helvetica, Arial, sans-serif" font-size="11" fill="#586069">Total Records</text>
  <circle cx="455" cy="31" r="4" fill="#22c55e" />
  <text x="463" y="34" font-family="-apple-system, BlinkMacSystemFont, &quot;Segoe UI&quot;, Helvetica, Arial, sans-serif" font-size="11" fill="#586069">Added</text>
  <!-- grid lines -->
  <line x1="58" y1="52" x2="848" y2="52"
           stroke="#e1e4e8" stroke-width="1" stroke-dasharray="4,3" />
  <line x1="58" y1="145" x2="848" y2="145"
           stroke="#e1e4e8" stroke-width="1" stroke-dasharray="4,3" />
  <line x1="58" y1="236" x2="848" y2="236"
           stroke="#e1e4e8" stroke-width="1" stroke-dasharray="4,3" />
  <!-- bars (Added, right axis) -->
  <rect x="59" y="73" width="32" height="167"
          rx="1" fill="#22c55eb3" />
  <rect x="93" y="217" width="32" height="23"
          rx="1" fill="#22c55eb3" />
  <rect x="127" y="187" width="32" height="53"
          rx="1" fill="#22c55eb3" />
  <rect x="161" y="94" width="32" height="146"
          rx="1" fill="#22c55eb3" />
  <rect x="195" y="157" width="32" height="83"
          rx="1" fill="#22c55eb3" />
  <rect x="229" y="178" width="32" height="62"
          rx="1" fill="#22c55eb3" />
  <rect x="263" y="181" width="32" height="59"
          rx="1" fill="#22c55eb3" />
  <rect x="297" y="158" width="32" height="82"
          rx="1" fill="#22c55eb3" />
  <rect x="331" y="152" width="32" height="88"
          rx="1" fill="#22c55eb3" />
  <rect x="365" y="160" width="32" height="80"
          rx="1" fill="#22c55eb3" />
  <rect x="399" y="172" width="32" height="68"
          rx="1" fill="#22c55eb3" />
  <rect x="433" y="152" width="32" height="88"
          rx="1" fill="#22c55eb3" />
  <rect x="467" y="151" width="32" height="89"
          rx="1" fill="#22c55eb3" />
  <rect x="501" y="159" width="32" height="81"
          rx="1" fill="#22c55eb3" />
  <rect x="535" y="157" width="32" height="83"
          rx="1" fill="#22c55eb3" />
  <rect x="569" y="156" width="32" height="84"
          rx="1" fill="#22c55eb3" />
  <rect x="603" y="160" width="32" height="80"
          rx="1" fill="#22c55eb3" />
  <rect x="637" y="162" width="32" height="78"
          rx="1" fill="#22c55eb3" />
  <rect x="671" y="163" width="32" height="77"
          rx="1" fill="#22c55eb3" />
  <rect x="705" y="167" width="32" height="73"
          rx="1" fill="#22c55eb3" />
  <rect x="739" y="167" width="32" height="73"
          rx="1" fill="#22c55eb3" />
  <rect x="773" y="167" width="32" height="73"
          rx="1" fill="#22c55eb3" />
  <rect x="807" y="207" width="32" height="33"
          rx="1" fill="#22c55eb3" />
  <!-- line (Total, left axis) -->
  <polyline points="75,240 109,237 143,231 177,215 211,205 245,198 279,191 313,182 347,172 381,162 415,155 449,144 483,134 517,125 551,115 585,106 619,97 653,88 687,79 721,71 755,62 789,54 823,50" fill="none" stroke="#3b82f6" stroke-width="2" stroke-linejoin="round" stroke-linecap="round" />
  <!-- left y-axis labels (Total) -->
  <text x="52" y="56" text-anchor="end"
           font-family="-apple-system, BlinkMacSystemFont, &quot;Segoe UI&quot;, Helvetica, Arial, sans-serif" font-size="10" fill="#586069"
           >2M</text>
  <text x="52" y="149" text-anchor="end"
           font-family="-apple-system, BlinkMacSystemFont, &quot;Segoe UI&quot;, Helvetica, Arial, sans-serif" font-size="10" fill="#586069"
           >855k</text>
  <text x="52" y="240" text-anchor="end"
           font-family="-apple-system, BlinkMacSystemFont, &quot;Segoe UI&quot;, Helvetica, Arial, sans-serif" font-size="10" fill="#586069"
           >144k</text>
  <!-- right y-axis labels (Added) -->
  <text x="854" y="56" text-anchor="start"
           font-family="-apple-system, BlinkMacSystemFont, &quot;Segoe UI&quot;, Helvetica, Arial, sans-serif" font-size="10" fill="#22c55e"
           >144k</text>
  <text x="854" y="149" text-anchor="start"
           font-family="-apple-system, BlinkMacSystemFont, &quot;Segoe UI&quot;, Helvetica, Arial, sans-serif" font-size="10" fill="#22c55e"
           >72k</text>
  <text x="854" y="240" text-anchor="start"
           font-family="-apple-system, BlinkMacSystemFont, &quot;Segoe UI&quot;, Helvetica, Arial, sans-serif" font-size="10" fill="#22c55e"
           >0</text>
  <!-- axes -->
  <line x1="58" y1="50" x2="58" y2="240"
        stroke="#e1e4e8" stroke-width="1" />
  <line x1="58" y1="240" x2="848" y2="240"
        stroke="#e1e4e8" stroke-width="1" />
  <line x1="848" y1="50" x2="848" y2="240"
           stroke="#e1e4e8" stroke-width="1" />
  <!-- x-axis labels -->
  <text x="75" y="256" text-anchor="middle"
           font-family="-apple-system, BlinkMacSystemFont, &quot;Segoe UI&quot;, Helvetica, Arial, sans-serif" font-size="10" fill="#586069"
           >Nov 16</text>
  <text x="313" y="256" text-anchor="middle"
           font-family="-apple-system, BlinkMacSystemFont, &quot;Segoe UI&quot;, Helvetica, Arial, sans-serif" font-size="10" fill="#586069"
           >Jan 4</text>
  <text x="551" y="256" text-anchor="middle"
           font-family="-apple-system, BlinkMacSystemFont, &quot;Segoe UI&quot;, Helvetica, Arial, sans-serif" font-size="10" fill="#586069"
           >Feb 22</text>
  <text x="789" y="256" text-anchor="middle"
           font-family="-apple-system, BlinkMacSystemFont, &quot;Segoe UI&quot;, Helvetica, Arial, sans-serif" font-size="10" fill="#586069"
           >Apr 12</text>
  <text x="823" y="256" text-anchor="middle"
           font-family="-apple-system, BlinkMacSystemFont, &quot;Segoe UI&quot;, Helvetica, Arial, sans-serif" font-size="10" fill="#586069"
           >Apr 19</text>
</svg>