<svg xmlns="http://www.w3.org/2000/svg" width="900" height="268" viewBox="0 0 900 268">
  <rect width="900" height="268" fill="#ffffff" rx="6" ry="6" />
  <!-- title -->
  <text x="450" y="20" text-anchor="middle"
        font-family="-apple-system, BlinkMacSystemFont, &quot;Segoe UI&quot;, Helvetica, Arial, sans-serif" font-size="14" font-weight="600" fill="#24292e"
        >Auction Listings — Record Growth</text>
  <!-- legend -->
  <circle cx="365" cy="31" r="4" fill="#3b82f6" />
  <text x="373" y="34" font-family="-apple-system, BlinkMacSystemFont, &quot;Segoe UI&quot;, Helvetica, Arial, sans-serif" font-size="11" fill="#586069">Total Records</text>
  <circle cx="455" cy="31" r="4" fill="#22c55e" />
  <text x="463" y="34" font-family="-apple-system, BlinkMacSystemFont, &quot;Segoe UI&quot;, Helvetica, Arial, sans-serif" font-size="11" fill="#586069">Added</text>
  <!-- grid lines -->
  <line x1="58" y1="52" x2="848" y2="52"
           stroke="#e1e4e8" stroke-width="1" stroke-dasharray="4,3" />
  <line x1="58" y1="145" x2="848" y2="145"
           stroke="#e1e4e8" stroke-width="1" stroke-dasharray="4,3" />
  <line x1="58" y1="236" x2="848" y2="236"
           stroke="#e1e4e8" stroke-width="1" stroke-dasharray="4,3" />
  <!-- bars (Added, right axis) -->
  <rect x="60" y="73" width="27" height="167"
          rx="1" fill="#22c55eb3" />
  <rect x="89" y="78" width="27" height="162"
          rx="1" fill="#22c55eb3" />
  <rect x="118" y="79" width="27" height="161"
          rx="1" fill="#22c55eb3" />
  <rect x="147" y="88" width="27" height="152"
          rx="1" fill="#22c55eb3" />
  <rect x="176" y="87" width="27" height="153"
          rx="1" fill="#22c55eb3" />
  <rect x="205" y="88" width="27" height="152"
          rx="1" fill="#22c55eb3" />
  <rect x="234" y="89" width="27" height="151"
          rx="1" fill="#22c55eb3" />
  <rect x="263" y="87" width="27" height="153"
          rx="1" fill="#22c55eb3" />
  <rect x="292" y="89" width="27" height="151"
          rx="1" fill="#22c55eb3" />
  <rect x="321" y="90" width="27" height="150"
          rx="1" fill="#22c55eb3" />
  <rect x="350" y="94" width="27" height="146"
          rx="1" fill="#22c55eb3" />
  <rect x="379" y="118" width="27" height="122"
          rx="1" fill="#22c55eb3" />
  <rect x="408" y="103" width="27" height="137"
          rx="1" fill="#22c55eb3" />
  <rect x="437" y="76" width="27" height="164"
          rx="1" fill="#22c55eb3" />
  <rect x="466" y="98" width="27" height="142"
          rx="1" fill="#22c55eb3" />
  <rect x="495" y="100" width="27" height="140"
          rx="1" fill="#22c55eb3" />
  <rect x="524" y="119" width="27" height="121"
          rx="1" fill="#22c55eb3" />
  <rect x="553" y="87" width="27" height="153"
          rx="1" fill="#22c55eb3" />
  <rect x="582" y="91" width="27" height="149"
          rx="1" fill="#22c55eb3" />
  <rect x="611" y="89" width="27" height="151"
          rx="1" fill="#22c55eb3" />
  <rect x="640" y="83" width="27" height="157"
          rx="1" fill="#22c55eb3" />
  <rect x="669" y="85" width="27" height="155"
          rx="1" fill="#22c55eb3" />
  <rect x="698" y="81" width="27" height="159"
          rx="1" fill="#22c55eb3" />
  <rect x="727" y="83" width="27" height="157"
          rx="1" fill="#22c55eb3" />
  <rect x="756" y="80" width="27" height="160"
          rx="1" fill="#22c55eb3" />
  <rect x="785" y="90" width="27" height="150"
          rx="1" fill="#22c55eb3" />
  
  <!-- line (Total, left axis) -->
  <polyline points="73,240 102,232 131,224 160,216 189,208 218,200 247,193 276,185 305,177 334,170 363,162 392,156 421,149 450,141 479,134 508,127 537,121 566,113 595,105 624,98 653,90 682,82 711,74 740,66 769,58 798,50 827,50" fill="none" stroke="#3b82f6" stroke-width="2" stroke-linejoin="round" stroke-linecap="round" />
  <!-- left y-axis labels (Total) -->
  <text x="52" y="56" text-anchor="end"
           font-family="-apple-system, BlinkMacSystemFont, &quot;Segoe UI&quot;, Helvetica, Arial, sans-serif" font-size="10" fill="#586069"
           >3M</text>
  <text x="52" y="149" text-anchor="end"
           font-family="-apple-system, BlinkMacSystemFont, &quot;Segoe UI&quot;, Helvetica, Arial, sans-serif" font-size="10" fill="#586069"
           >2M</text>
  <text x="52" y="240" text-anchor="end"
           font-family="-apple-system, BlinkMacSystemFont, &quot;Segoe UI&quot;, Helvetica, Arial, sans-serif" font-size="10" fill="#586069"
           >1M</text>
  <!-- right y-axis labels (Added) -->
  <text x="854" y="56" text-anchor="start"
           font-family="-apple-system, BlinkMacSystemFont, &quot;Segoe UI&quot;, Helvetica, Arial, sans-serif" font-size="10" fill="#22c55e"
           >69k</text>
  <text x="854" y="149" text-anchor="start"
           font-family="-apple-system, BlinkMacSystemFont, &quot;Segoe UI&quot;, Helvetica, Arial, sans-serif" font-size="10" fill="#22c55e"
           >34k</text>
  <text x="854" y="240" text-anchor="start"
           font-family="-apple-system, BlinkMacSystemFont, &quot;Segoe UI&quot;, Helvetica, Arial, sans-serif" font-size="10" fill="#22c55e"
           >0</text>
  <!-- axes -->
  <line x1="58" y1="50" x2="58" y2="240"
        stroke="#e1e4e8" stroke-width="1" />
  <line x1="58" y1="240" x2="848" y2="240"
        stroke="#e1e4e8" stroke-width="1" />
  <line x1="848" y1="50" x2="848" y2="240"
           stroke="#e1e4e8" stroke-width="1" />
  <!-- x-axis labels -->
  <text x="73" y="256" text-anchor="middle"
           font-family="-apple-system, BlinkMacSystemFont, &quot;Segoe UI&quot;, Helvetica, Arial, sans-serif" font-size="10" fill="#586069"
           >Mar 8</text>
  <text x="305" y="256" text-anchor="middle"
           font-family="-apple-system, BlinkMacSystemFont, &quot;Segoe UI&quot;, Helvetica, Arial, sans-serif" font-size="10" fill="#586069"
           >May 3</text>
  <text x="537" y="256" text-anchor="middle"
           font-family="-apple-system, BlinkMacSystemFont, &quot;Segoe UI&quot;, Helvetica, Arial, sans-serif" font-size="10" fill="#586069"
           >Jun 28</text>
  <text x="769" y="256" text-anchor="middle"
           font-family="-apple-system, BlinkMacSystemFont, &quot;Segoe UI&quot;, Helvetica, Arial, sans-serif" font-size="10" fill="#586069"
           >Aug 23</text>
  <text x="827" y="256" text-anchor="middle"
           font-family="-apple-system, BlinkMacSystemFont, &quot;Segoe UI&quot;, Helvetica, Arial, sans-serif" font-size="10" fill="#586069"
           >Sep 6</text>
</svg>