<svg xmlns="http://www.w3.org/2000/svg" width="900" height="268" viewBox="0 0 900 268">
  <rect width="900" height="268" fill="#ffffff" rx="6" ry="6" />
  <!-- title -->
  <text x="450" y="20" text-anchor="middle"
        font-family="-apple-system, BlinkMacSystemFont, &quot;Segoe UI&quot;, Helvetica, Arial, sans-serif" font-size="14" font-weight="600" fill="#24292e"
        >Auction Listings — Record Growth</text>
  <!-- legend -->
  <circle cx="365" cy="31" r="4" fill="#3b82f6" />
  <text x="373" y="34" font-family="-apple-system, BlinkMacSystemFont, &quot;Segoe UI&quot;, Helvetica, Arial, sans-serif" font-size="11" fill="#586069">Total Records</text>
  <circle cx="455" cy="31" r="4" fill="#22c55e" />
  <text x="463" y="34" font-family="-apple-system, BlinkMacSystemFont, &quot;Segoe UI&quot;, Helvetica, Arial, sans-serif" font-size="11" fill="#586069">Added</text>
  <!-- grid lines -->
  <line x1="58" y1="52" x2="848" y2="52"
           stroke="#e1e4e8" stroke-width="1" stroke-dasharray="4,3" />
  <line x1="58" y1="145" x2="848" y2="145"
           stroke="#e1e4e8" stroke-width="1" stroke-dasharray="4,3" />
  <line x1="58" y1="236" x2="848" y2="236"
           stroke="#e1e4e8" stroke-width="1" stroke-dasharray="4,3" />
  <!-- bars (Added, right axis) -->
  <rect x="60" y="214" width="29" height="26"
          rx="1" fill="#22c55eb3" />
  <rect x="91" y="179" width="29" height="61"
          rx="1" fill="#22c55eb3" />
  <rect x="122" y="73" width="29" height="167"
          rx="1" fill="#22c55eb3" />
  <rect x="153" y="145" width="29" height="95"
          rx="1" fill="#22c55eb3" />
  <rect x="184" y="169" width="29" height="71"
          rx="1" fill="#22c55eb3" />
  <rect x="215" y="173" width="29" height="67"
          rx="1" fill="#22c55eb3" />
  <rect x="246" y="146" width="29" height="94"
          rx="1" fill="#22c55eb3" />
  <rect x="277" y="139" width="29" height="101"
          rx="1" fill="#22c55eb3" />
  <rect x="308" y="148" width="29" height="92"
          rx="1" fill="#22c55eb3" />
  <rect x="339" y="162" width="29" height="78"
          rx="1" fill="#22c55eb3" />
  <rect x="370" y="139" width="29" height="101"
          rx="1" fill="#22c55eb3" />
  <rect x="401" y="138" width="29" height="102"
          rx="1" fill="#22c55eb3" />
  <rect x="432" y="147" width="29" height="93"
          rx="1" fill="#22c55eb3" />
  <rect x="463" y="145" width="29" height="95"
          rx="1" fill="#22c55eb3" />
  <rect x="494" y="144" width="29" height="96"
          rx="1" fill="#22c55eb3" />
  <rect x="525" y="148" width="29" height="92"
          rx="1" fill="#22c55eb3" />
  <rect x="556" y="151" width="29" height="89"
          rx="1" fill="#22c55eb3" />
  <rect x="587" y="152" width="29" height="88"
          rx="1" fill="#22c55eb3" />
  <rect x="618" y="157" width="29" height="83"
          rx="1" fill="#22c55eb3" />
  <rect x="649" y="156" width="29" height="84"
          rx="1" fill="#22c55eb3" />
  <rect x="680" y="156" width="29" height="84"
          rx="1" fill="#22c55eb3" />
  <rect x="711" y="157" width="29" height="83"
          rx="1" fill="#22c55eb3" />
  <rect x="742" y="156" width="29" height="84"
          rx="1" fill="#22c55eb3" />
  <rect x="773" y="157" width="29" height="83"
          rx="1" fill="#22c55eb3" />
  <rect x="804" y="206" width="29" height="34"
          rx="1" fill="#22c55eb3" />
  <!-- line (Total, left axis) -->
  <polyline points="74,240 105,235 136,220 167,211 198,205 229,199 260,190 291,181 322,173 353,166 384,157 415,148 446,139 477,131 508,122 539,114 570,106 601,98 632,91 663,83 694,75 725,68 756,60 787,53 818,50" fill="none" stroke="#3b82f6" stroke-width="2" stroke-linejoin="round" stroke-linecap="round" />
  <!-- left y-axis labels (Total) -->
  <text x="52" y="56" text-anchor="end"
           font-family="-apple-system, BlinkMacSystemFont, &quot;Segoe UI&quot;, Helvetica, Arial, sans-serif" font-size="10" fill="#586069"
           >2M</text>
  <text x="52" y="149" text-anchor="end"
           font-family="-apple-system, BlinkMacSystemFont, &quot;Segoe UI&quot;, Helvetica, Arial, sans-serif" font-size="10" fill="#586069"
           >957k</text>
  <text x="52" y="240" text-anchor="end"
           font-family="-apple-system, BlinkMacSystemFont, &quot;Segoe UI&quot;, Helvetica, Arial, sans-serif" font-size="10" fill="#586069"
           >163k</text>
  <!-- right y-axis labels (Added) -->
  <text x="854" y="56" text-anchor="start"
           font-family="-apple-system, BlinkMacSystemFont, &quot;Segoe UI&quot;, Helvetica, Arial, sans-serif" font-size="10" fill="#22c55e"
           >126k</text>
  <text x="854" y="149" text-anchor="start"
           font-family="-apple-system, BlinkMacSystemFont, &quot;Segoe UI&quot;, Helvetica, Arial, sans-serif" font-size="10" fill="#22c55e"
           >63k</text>
  <text x="854" y="240" text-anchor="start"
           font-family="-apple-system, BlinkMacSystemFont, &quot;Segoe UI&quot;, Helvetica, Arial, sans-serif" font-size="10" fill="#22c55e"
           >0</text>
  <!-- axes -->
  <line x1="58" y1="50" x2="58" y2="240"
        stroke="#e1e4e8" stroke-width="1" />
  <line x1="58" y1="240" x2="848" y2="240"
        stroke="#e1e4e8" stroke-width="1" />
  <line x1="848" y1="50" x2="848" y2="240"
           stroke="#e1e4e8" stroke-width="1" />
  <!-- x-axis labels -->
  <text x="74" y="256" text-anchor="middle"
           font-family="-apple-system, BlinkMacSystemFont, &quot;Segoe UI&quot;, Helvetica, Arial, sans-serif" font-size="10" fill="#586069"
           >Nov 23</text>
  <text x="322" y="256" text-anchor="middle"
           font-family="-apple-system, BlinkMacSystemFont, &quot;Segoe UI&quot;, Helvetica, Arial, sans-serif" font-size="10" fill="#586069"
           >Jan 18</text>
  <text x="570" y="256" text-anchor="middle"
           font-family="-apple-system, BlinkMacSystemFont, &quot;Segoe UI&quot;, Helvetica, Arial, sans-serif" font-size="10" fill="#586069"
           >Mar 15</text>
  <text x="818" y="256" text-anchor="middle"
           font-family="-apple-system, BlinkMacSystemFont, &quot;Segoe UI&quot;, Helvetica, Arial, sans-serif" font-size="10" fill="#586069"
           >May 10</text>
</svg>