<svg xmlns="http://www.w3.org/2000/svg" width="900" height="268" viewBox="0 0 900 268">
  <rect width="900" height="268" fill="#ffffff" rx="6" ry="6" />
  <!-- title -->
  <text x="450" y="20" text-anchor="middle"
        font-family="-apple-system, BlinkMacSystemFont, &quot;Segoe UI&quot;, Helvetica, Arial, sans-serif" font-size="14" font-weight="600" fill="#24292e"
        >Auction Listings — Record Growth</text>
  <!-- legend -->
  <circle cx="365" cy="31" r="4" fill="#3b82f6" />
  <text x="373" y="34" font-family="-apple-system, BlinkMacSystemFont, &quot;Segoe UI&quot;, Helvetica, Arial, sans-serif" font-size="11" fill="#586069">Total Records</text>
  <circle cx="455" cy="31" r="4" fill="#22c55e" />
  <text x="463" y="34" font-family="-apple-system, BlinkMacSystemFont, &quot;Segoe UI&quot;, Helvetica, Arial, sans-serif" font-size="11" fill="#586069">Added</text>
  <!-- grid lines -->
  <line x1="58" y1="52" x2="848" y2="52"
           stroke="#e1e4e8" stroke-width="1" stroke-dasharray="4,3" />
  <line x1="58" y1="145" x2="848" y2="145"
           stroke="#e1e4e8" stroke-width="1" stroke-dasharray="4,3" />
  <line x1="58" y1="236" x2="848" y2="236"
           stroke="#e1e4e8" stroke-width="1" stroke-dasharray="4,3" />
  <!-- bars (Added, right axis) -->
  <rect x="59" y="85" width="28" height="155"
          rx="1" fill="#22c55eb3" />
  <rect x="89" y="74" width="28" height="166"
          rx="1" fill="#22c55eb3" />
  <rect x="119" y="90" width="28" height="150"
          rx="1" fill="#22c55eb3" />
  <rect x="149" y="113" width="28" height="127"
          rx="1" fill="#22c55eb3" />
  <rect x="179" y="75" width="28" height="165"
          rx="1" fill="#22c55eb3" />
  <rect x="209" y="73" width="28" height="167"
          rx="1" fill="#22c55eb3" />
  <rect x="239" y="88" width="28" height="152"
          rx="1" fill="#22c55eb3" />
  <rect x="269" y="84" width="28" height="156"
          rx="1" fill="#22c55eb3" />
  <rect x="299" y="83" width="28" height="157"
          rx="1" fill="#22c55eb3" />
  <rect x="329" y="89" width="28" height="151"
          rx="1" fill="#22c55eb3" />
  <rect x="359" y="94" width="28" height="146"
          rx="1" fill="#22c55eb3" />
  <rect x="389" y="95" width="28" height="145"
          rx="1" fill="#22c55eb3" />
  <rect x="419" y="104" width="28" height="136"
          rx="1" fill="#22c55eb3" />
  <rect x="449" y="102" width="28" height="138"
          rx="1" fill="#22c55eb3" />
  <rect x="479" y="103" width="28" height="137"
          rx="1" fill="#22c55eb3" />
  <rect x="509" y="104" width="28" height="136"
          rx="1" fill="#22c55eb3" />
  <rect x="539" y="102" width="28" height="138"
          rx="1" fill="#22c55eb3" />
  <rect x="569" y="104" width="28" height="136"
          rx="1" fill="#22c55eb3" />
  <rect x="599" y="105" width="28" height="135"
          rx="1" fill="#22c55eb3" />
  <rect x="629" y="108" width="28" height="132"
          rx="1" fill="#22c55eb3" />
  <rect x="659" y="130" width="28" height="110"
          rx="1" fill="#22c55eb3" />
  <rect x="689" y="117" width="28" height="123"
          rx="1" fill="#22c55eb3" />
  <rect x="719" y="92" width="28" height="148"
          rx="1" fill="#22c55eb3" />
  <rect x="749" y="112" width="28" height="128"
          rx="1" fill="#22c55eb3" />
  <rect x="779" y="114" width="28" height="126"
          rx="1" fill="#22c55eb3" />
  
  <!-- line (Total, left axis) -->
  <polyline points="73,240 103,231 133,222 163,215 193,206 223,197 253,188 283,179 313,171 343,162 373,154 403,146 433,138 463,131 493,123 523,116 553,108 583,100 613,93 643,85 673,79 703,72 733,64 763,57 793,50 823,50" fill="none" stroke="#3b82f6" stroke-width="2" stroke-linejoin="round" stroke-linecap="round" />
  <!-- left y-axis labels (Total) -->
  <text x="52" y="56" text-anchor="end"
           font-family="-apple-system, BlinkMacSystemFont, &quot;Segoe UI&quot;, Helvetica, Arial, sans-serif" font-size="10" fill="#586069"
           >2M</text>
  <text x="52" y="149" text-anchor="end"
           font-family="-apple-system, BlinkMacSystemFont, &quot;Segoe UI&quot;, Helvetica, Arial, sans-serif" font-size="10" fill="#586069"
           >1M</text>
  <text x="52" y="240" text-anchor="end"
           font-family="-apple-system, BlinkMacSystemFont, &quot;Segoe UI&quot;, Helvetica, Arial, sans-serif" font-size="10" fill="#586069"
           >580k</text>
  <!-- right y-axis labels (Added) -->
  <text x="854" y="56" text-anchor="start"
           font-family="-apple-system, BlinkMacSystemFont, &quot;Segoe UI&quot;, Helvetica, Arial, sans-serif" font-size="10" fill="#22c55e"
           >77k</text>
  <text x="854" y="149" text-anchor="start"
           font-family="-apple-system, BlinkMacSystemFont, &quot;Segoe UI&quot;, Helvetica, Arial, sans-serif" font-size="10" fill="#22c55e"
           >38k</text>
  <text x="854" y="240" text-anchor="start"
           font-family="-apple-system, BlinkMacSystemFont, &quot;Segoe UI&quot;, Helvetica, Arial, sans-serif" font-size="10" fill="#22c55e"
           >0</text>
  <!-- axes -->
  <line x1="58" y1="50" x2="58" y2="240"
        stroke="#e1e4e8" stroke-width="1" />
  <line x1="58" y1="240" x2="848" y2="240"
        stroke="#e1e4e8" stroke-width="1" />
  <line x1="848" y1="50" x2="848" y2="240"
           stroke="#e1e4e8" stroke-width="1" />
  <!-- x-axis labels -->
  <text x="73" y="256" text-anchor="middle"
           font-family="-apple-system, BlinkMacSystemFont, &quot;Segoe UI&quot;, Helvetica, Arial, sans-serif" font-size="10" fill="#586069"
           >Jan 4</text>
  <text x="313" y="256" text-anchor="middle"
           font-family="-apple-system, BlinkMacSystemFont, &quot;Segoe UI&quot;, Helvetica, Arial, sans-serif" font-size="10" fill="#586069"
           >Mar 1</text>
  <text x="553" y="256" text-anchor="middle"
           font-family="-apple-system, BlinkMacSystemFont, &quot;Segoe UI&quot;, Helvetica, Arial, sans-serif" font-size="10" fill="#586069"
           >Apr 26</text>
  <text x="793" y="256" text-anchor="middle"
           font-family="-apple-system, BlinkMacSystemFont, &quot;Segoe UI&quot;, Helvetica, Arial, sans-serif" font-size="10" fill="#586069"
           >Jun 21</text>
  <text x="823" y="256" text-anchor="middle"
           font-family="-apple-system, BlinkMacSystemFont, &quot;Segoe UI&quot;, Helvetica, Arial, sans-serif" font-size="10" fill="#586069"
           >Jun 28</text>
</svg>