<svg xmlns="http://www.w3.org/2000/svg" width="900" height="268" viewBox="0 0 900 268">
  <rect width="900" height="268" fill="#ffffff" rx="6" ry="6" />
  <!-- title -->
  <text x="450" y="20" text-anchor="middle"
        font-family="-apple-system, BlinkMacSystemFont, &quot;Segoe UI&quot;, Helvetica, Arial, sans-serif" font-size="14" font-weight="600" fill="#24292e"
        >Auction Listings — Record Growth</text>
  <!-- legend -->
  <circle cx="365" cy="31" r="4" fill="#3b82f6" />
  <text x="373" y="34" font-family="-apple-system, BlinkMacSystemFont, &quot;Segoe UI&quot;, Helvetica, Arial, sans-serif" font-size="11" fill="#586069">Total Records</text>
  <circle cx="455" cy="31" r="4" fill="#22c55e" />
  <text x="463" y="34" font-family="-apple-system, BlinkMacSystemFont, &quot;Segoe UI&quot;, Helvetica, Arial, sans-serif" font-size="11" fill="#586069">Added</text>
  <!-- grid lines -->
  <line x1="58" y1="52" x2="848" y2="52"
           stroke="#e1e4e8" stroke-width="1" stroke-dasharray="4,3" />
  <line x1="58" y1="145" x2="848" y2="145"
           stroke="#e1e4e8" stroke-width="1" stroke-dasharray="4,3" />
  <line x1="58" y1="236" x2="848" y2="236"
           stroke="#e1e4e8" stroke-width="1" stroke-dasharray="4,3" />
  <!-- bars (Added, right axis) -->
  <rect x="59" y="73" width="32" height="167"
          rx="1" fill="#22c55eb3" />
  <rect x="93" y="145" width="32" height="95"
          rx="1" fill="#22c55eb3" />
  <rect x="127" y="169" width="32" height="71"
          rx="1" fill="#22c55eb3" />
  <rect x="161" y="173" width="32" height="67"
          rx="1" fill="#22c55eb3" />
  <rect x="195" y="146" width="32" height="94"
          rx="1" fill="#22c55eb3" />
  <rect x="229" y="139" width="32" height="101"
          rx="1" fill="#22c55eb3" />
  <rect x="263" y="148" width="32" height="92"
          rx="1" fill="#22c55eb3" />
  <rect x="297" y="162" width="32" height="78"
          rx="1" fill="#22c55eb3" />
  <rect x="331" y="139" width="32" height="101"
          rx="1" fill="#22c55eb3" />
  <rect x="365" y="138" width="32" height="102"
          rx="1" fill="#22c55eb3" />
  <rect x="399" y="147" width="32" height="93"
          rx="1" fill="#22c55eb3" />
  <rect x="433" y="145" width="32" height="95"
          rx="1" fill="#22c55eb3" />
  <rect x="467" y="144" width="32" height="96"
          rx="1" fill="#22c55eb3" />
  <rect x="501" y="148" width="32" height="92"
          rx="1" fill="#22c55eb3" />
  <rect x="535" y="151" width="32" height="89"
          rx="1" fill="#22c55eb3" />
  <rect x="569" y="152" width="32" height="88"
          rx="1" fill="#22c55eb3" />
  <rect x="603" y="157" width="32" height="83"
          rx="1" fill="#22c55eb3" />
  <rect x="637" y="156" width="32" height="84"
          rx="1" fill="#22c55eb3" />
  <rect x="671" y="156" width="32" height="84"
          rx="1" fill="#22c55eb3" />
  <rect x="705" y="157" width="32" height="83"
          rx="1" fill="#22c55eb3" />
  <rect x="739" y="156" width="32" height="84"
          rx="1" fill="#22c55eb3" />
  <rect x="773" y="157" width="32" height="83"
          rx="1" fill="#22c55eb3" />
  <rect x="807" y="206" width="32" height="34"
          rx="1" fill="#22c55eb3" />
  <!-- line (Total, left axis) -->
  <polyline points="75,240 109,230 143,223 177,217 211,207 245,197 279,188 313,180 347,170 381,159 415,150 449,141 483,131 517,122 551,113 585,104 619,95 653,87 687,79 721,70 755,62 789,53 823,50" fill="none" stroke="#3b82f6" stroke-width="2" stroke-linejoin="round" stroke-linecap="round" />
  <!-- left y-axis labels (Total) -->
  <text x="52" y="56" text-anchor="end"
           font-family="-apple-system, BlinkMacSystemFont, &quot;Segoe UI&quot;, Helvetica, Arial, sans-serif" font-size="10" fill="#586069"
           >2M</text>
  <text x="52" y="149" text-anchor="end"
           font-family="-apple-system, BlinkMacSystemFont, &quot;Segoe UI&quot;, Helvetica, Arial, sans-serif" font-size="10" fill="#586069"
           >1M</text>
  <text x="52" y="240" text-anchor="end"
           font-family="-apple-system, BlinkMacSystemFont, &quot;Segoe UI&quot;, Helvetica, Arial, sans-serif" font-size="10" fill="#586069"
           >335k</text>
  <!-- right y-axis labels (Added) -->
  <text x="854" y="56" text-anchor="start"
           font-family="-apple-system, BlinkMacSystemFont, &quot;Segoe UI&quot;, Helvetica, Arial, sans-serif" font-size="10" fill="#22c55e"
           >126k</text>
  <text x="854" y="149" text-anchor="start"
           font-family="-apple-system, BlinkMacSystemFont, &quot;Segoe UI&quot;, Helvetica, Arial, sans-serif" font-size="10" fill="#22c55e"
           >63k</text>
  <text x="854" y="240" text-anchor="start"
           font-family="-apple-system, BlinkMacSystemFont, &quot;Segoe UI&quot;, Helvetica, Arial, sans-serif" font-size="10" fill="#22c55e"
           >0</text>
  <!-- axes -->
  <line x1="58" y1="50" x2="58" y2="240"
        stroke="#e1e4e8" stroke-width="1" />
  <line x1="58" y1="240" x2="848" y2="240"
        stroke="#e1e4e8" stroke-width="1" />
  <line x1="848" y1="50" x2="848" y2="240"
           stroke="#e1e4e8" stroke-width="1" />
  <!-- x-axis labels -->
  <text x="75" y="256" text-anchor="middle"
           font-family="-apple-system, BlinkMacSystemFont, &quot;Segoe UI&quot;, Helvetica, Arial, sans-serif" font-size="10" fill="#586069"
           >Dec 7</text>
  <text x="313" y="256" text-anchor="middle"
           font-family="-apple-system, BlinkMacSystemFont, &quot;Segoe UI&quot;, Helvetica, Arial, sans-serif" font-size="10" fill="#586069"
           >Jan 25</text>
  <text x="551" y="256" text-anchor="middle"
           font-family="-apple-system, BlinkMacSystemFont, &quot;Segoe UI&quot;, Helvetica, Arial, sans-serif" font-size="10" fill="#586069"
           >Mar 15</text>
  <text x="789" y="256" text-anchor="middle"
           font-family="-apple-system, BlinkMacSystemFont, &quot;Segoe UI&quot;, Helvetica, Arial, sans-serif" font-size="10" fill="#586069"
           >May 3</text>
  <text x="823" y="256" text-anchor="middle"
           font-family="-apple-system, BlinkMacSystemFont, &quot;Segoe UI&quot;, Helvetica, Arial, sans-serif" font-size="10" fill="#586069"
           >May 10</text>
</svg>