<svg xmlns="http://www.w3.org/2000/svg" width="900" height="268" viewBox="0 0 900 268">
  <rect width="900" height="268" fill="#ffffff" rx="6" ry="6" />
  <!-- title -->
  <text x="450" y="20" text-anchor="middle"
        font-family="-apple-system, BlinkMacSystemFont, &quot;Segoe UI&quot;, Helvetica, Arial, sans-serif" font-size="14" font-weight="600" fill="#24292e"
        >Auction Listings — Record Growth</text>
  <!-- legend -->
  <circle cx="365" cy="31" r="4" fill="#3b82f6" />
  <text x="373" y="34" font-family="-apple-system, BlinkMacSystemFont, &quot;Segoe UI&quot;, Helvetica, Arial, sans-serif" font-size="11" fill="#586069">Total Records</text>
  <circle cx="455" cy="31" r="4" fill="#22c55e" />
  <text x="463" y="34" font-family="-apple-system, BlinkMacSystemFont, &quot;Segoe UI&quot;, Helvetica, Arial, sans-serif" font-size="11" fill="#586069">Added</text>
  <!-- grid lines -->
  <line x1="58" y1="52" x2="848" y2="52"
           stroke="#e1e4e8" stroke-width="1" stroke-dasharray="4,3" />
  <line x1="58" y1="145" x2="848" y2="145"
           stroke="#e1e4e8" stroke-width="1" stroke-dasharray="4,3" />
  <line x1="58" y1="236" x2="848" y2="236"
           stroke="#e1e4e8" stroke-width="1" stroke-dasharray="4,3" />
  <!-- bars (Added, right axis) -->
  <rect x="59" y="179" width="30" height="61"
          rx="1" fill="#22c55eb3" />
  <rect x="91" y="73" width="30" height="167"
          rx="1" fill="#22c55eb3" />
  <rect x="123" y="145" width="30" height="95"
          rx="1" fill="#22c55eb3" />
  <rect x="155" y="169" width="30" height="71"
          rx="1" fill="#22c55eb3" />
  <rect x="187" y="173" width="30" height="67"
          rx="1" fill="#22c55eb3" />
  <rect x="219" y="146" width="30" height="94"
          rx="1" fill="#22c55eb3" />
  <rect x="251" y="139" width="30" height="101"
          rx="1" fill="#22c55eb3" />
  <rect x="283" y="148" width="30" height="92"
          rx="1" fill="#22c55eb3" />
  <rect x="315" y="162" width="30" height="78"
          rx="1" fill="#22c55eb3" />
  <rect x="347" y="139" width="30" height="101"
          rx="1" fill="#22c55eb3" />
  <rect x="379" y="138" width="30" height="102"
          rx="1" fill="#22c55eb3" />
  <rect x="411" y="147" width="30" height="93"
          rx="1" fill="#22c55eb3" />
  <rect x="443" y="145" width="30" height="95"
          rx="1" fill="#22c55eb3" />
  <rect x="475" y="144" width="30" height="96"
          rx="1" fill="#22c55eb3" />
  <rect x="507" y="148" width="30" height="92"
          rx="1" fill="#22c55eb3" />
  <rect x="539" y="151" width="30" height="89"
          rx="1" fill="#22c55eb3" />
  <rect x="571" y="152" width="30" height="88"
          rx="1" fill="#22c55eb3" />
  <rect x="603" y="157" width="30" height="83"
          rx="1" fill="#22c55eb3" />
  <rect x="635" y="156" width="30" height="84"
          rx="1" fill="#22c55eb3" />
  <rect x="667" y="156" width="30" height="84"
          rx="1" fill="#22c55eb3" />
  <rect x="699" y="157" width="30" height="83"
          rx="1" fill="#22c55eb3" />
  <rect x="731" y="156" width="30" height="84"
          rx="1" fill="#22c55eb3" />
  <rect x="763" y="157" width="30" height="83"
          rx="1" fill="#22c55eb3" />
  <rect x="795" y="206" width="30" height="34"
          rx="1" fill="#22c55eb3" />
  <!-- line (Total, left axis) -->
  <polyline points="74,240 106,225 138,216 170,209 202,203 234,194 266,185 298,176 330,169 362,160 394,151 426,142 458,133 490,124 522,116 554,108 586,99 618,92 650,84 682,76 714,69 746,61 778,53 810,50" fill="none" stroke="#3b82f6" stroke-width="2" stroke-linejoin="round" stroke-linecap="round" />
  <!-- left y-axis labels (Total) -->
  <text x="52" y="56" text-anchor="end"
           font-family="-apple-system, BlinkMacSystemFont, &quot;Segoe UI&quot;, Helvetica, Arial, sans-serif" font-size="10" fill="#586069"
           >2M</text>
  <text x="52" y="149" text-anchor="end"
           font-family="-apple-system, BlinkMacSystemFont, &quot;Segoe UI&quot;, Helvetica, Arial, sans-serif" font-size="10" fill="#586069"
           >980k</text>
  <text x="52" y="240" text-anchor="end"
           font-family="-apple-system, BlinkMacSystemFont, &quot;Segoe UI&quot;, Helvetica, Arial, sans-serif" font-size="10" fill="#586069"
           >209k</text>
  <!-- right y-axis labels (Added) -->
  <text x="854" y="56" text-anchor="start"
           font-family="-apple-system, BlinkMacSystemFont, &quot;Segoe UI&quot;, Helvetica, Arial, sans-serif" font-size="10" fill="#22c55e"
           >126k</text>
  <text x="854" y="149" text-anchor="start"
           font-family="-apple-system, BlinkMacSystemFont, &quot;Segoe UI&quot;, Helvetica, Arial, sans-serif" font-size="10" fill="#22c55e"
           >63k</text>
  <text x="854" y="240" text-anchor="start"
           font-family="-apple-system, BlinkMacSystemFont, &quot;Segoe UI&quot;, Helvetica, Arial, sans-serif" font-size="10" fill="#22c55e"
           >0</text>
  <!-- axes -->
  <line x1="58" y1="50" x2="58" y2="240"
        stroke="#e1e4e8" stroke-width="1" />
  <line x1="58" y1="240" x2="848" y2="240"
        stroke="#e1e4e8" stroke-width="1" />
  <line x1="848" y1="50" x2="848" y2="240"
           stroke="#e1e4e8" stroke-width="1" />
  <!-- x-axis labels -->
  <text x="74" y="256" text-anchor="middle"
           font-family="-apple-system, BlinkMacSystemFont, &quot;Segoe UI&quot;, Helvetica, Arial, sans-serif" font-size="10" fill="#586069"
           >Nov 30</text>
  <text x="298" y="256" text-anchor="middle"
           font-family="-apple-system, BlinkMacSystemFont, &quot;Segoe UI&quot;, Helvetica, Arial, sans-serif" font-size="10" fill="#586069"
           >Jan 18</text>
  <text x="522" y="256" text-anchor="middle"
           font-family="-apple-system, BlinkMacSystemFont, &quot;Segoe UI&quot;, Helvetica, Arial, sans-serif" font-size="10" fill="#586069"
           >Mar 8</text>
  <text x="746" y="256" text-anchor="middle"
           font-family="-apple-system, BlinkMacSystemFont, &quot;Segoe UI&quot;, Helvetica, Arial, sans-serif" font-size="10" fill="#586069"
           >Apr 26</text>
  <text x="810" y="256" text-anchor="middle"
           font-family="-apple-system, BlinkMacSystemFont, &quot;Segoe UI&quot;, Helvetica, Arial, sans-serif" font-size="10" fill="#586069"
           >May 10</text>
</svg>